<svg width="25" height="25" viewBox="0 0 25 25" fill="none" xmlns="http://www.w3.org/2000/svg">
<line x1="9.35355" y1="1.35355" x2="3.35355" y2="7.35355" stroke="#DFAE00"/>
<line x1="24.3536" y1="14.3536" x2="18.3536" y2="20.3536" stroke="#DFAE00"/>
<line x1="23.3536" y1="1.35355" x2="5.35355" y2="19.3536" stroke="#DFAE00"/>
<line x1="16.3536" y1="1.35355" x2="4.35355" y2="13.3536" stroke="#DFAE00"/>
<line x1="24.3536" y1="7.35355" x2="12.3536" y2="19.3536" stroke="#DFAE00"/>
<path d="M1.6224 1.6224L1.6224 1.6224C2.02091 1.22388 2.56141 1 3.125 1H21.875C22.4386 1 22.9791 1.2239 23.3776 1.62237L23.3776 1.62243C23.7761 2.02091 24 2.56139 24 3.125V21.875C24 22.4386 23.7761 22.9791 23.3777 23.3775L23.3775 23.3777C22.9791 23.7761 22.4386 24 21.875 24H3.125C2.56139 24 2.02091 23.7761 1.62243 23.3776L1.62237 23.3776C1.2239 22.9791 1 22.4386 1 21.875V3.125C1 2.56141 1.22388 2.02091 1.6224 1.6224Z" stroke="url(#paint0_linear)" stroke-width="2"/>
<defs>
<linearGradient id="paint0_linear" x1="12.5" y1="0" x2="12.5" y2="25" gradientUnits="userSpaceOnUse">
<stop stop-color="#FAE20E" stop-opacity="0.776119"/>
<stop offset="0.791667" stop-color="#FFE600"/>
<stop offset="1" stop-color="#FF7A00" stop-opacity="0.54"/>
</linearGradient>
</defs>
</svg>
